<svg width="760" height="360" viewBox="0 0 760 360" fill="none" xmlns="http://www.w3.org/2000/svg">
  <defs>
    <linearGradient id="wall" x1="0" y1="0" x2="0" y2="360"><stop stop-color="#090E2D"/><stop offset="1" stop-color="#111D4B"/></linearGradient>
    <linearGradient id="screen" x1="0" y1="0" x2="1" y2="1"><stop stop-color="#1F88FF"/><stop offset="1" stop-color="#5726E8"/></linearGradient>
    <filter id="shadow" x="-20%" y="-20%" width="140%" height="140%"><feDropShadow dx="0" dy="12" stdDeviation="14" flood-color="#071044" flood-opacity=".28"/></filter>
  </defs>
  <rect width="760" height="360" rx="14" fill="url(#wall)"/>
  <path d="M60 46h640v238H60z" fill="#EEF4FF"/>
  <path d="M92 75h576v179H92z" fill="#0A143C"/>
  <path d="M135 95h490v138H135z" fill="#14286C"/>
  <rect x="258" y="104" width="244" height="118" rx="8" fill="url(#screen)" filter="url(#shadow)"/>
  <text x="380" y="150" text-anchor="middle" fill="white" font-family="Inter, Arial" font-size="20" font-weight="800">Power Solutions</text>
  <path d="M330 178c33-30 68-30 101 0" stroke="white" stroke-width="5" opacity=".7"/>
  <circle cx="380" cy="181" r="18" fill="white" opacity=".88"/>
  <rect x="105" y="112" width="100" height="104" rx="5" fill="url(#screen)"/>
  <rect x="555" y="112" width="100" height="104" rx="5" fill="url(#screen)"/>
  <text x="155" y="171" text-anchor="middle" fill="white" font-family="Inter, Arial" font-size="38" font-style="italic" font-weight="800">e</text>
  <text x="605" y="171" text-anchor="middle" fill="white" font-family="Inter, Arial" font-size="38" font-style="italic" font-weight="800">e</text>
  <path d="M60 284h640l-52 54H112l-52-54Z" fill="#E8EEF8"/>
  <path d="M170 284v54M590 284v54M380 284v54" stroke="#C9D7EA" stroke-width="3"/>
  <g fill="#2E3F67">
    <circle cx="275" cy="262" r="7"/><path d="M269 270h12l4 42h-20l4-42Z"/>
    <circle cx="487" cy="262" r="7"/><path d="M481 270h12l4 42h-20l4-42Z"/>
  </g>
</svg>
