<svg xmlns="http://www.w3.org/2000/svg" width="720" height="420" viewBox="0 0 720 420">
  <defs>
    <linearGradient id="g" x1="0" y1="0" x2="1" y2="1">
      <stop offset="0" stop-color="#071044"/>
      <stop offset=".5" stop-color="#142b7a"/>
      <stop offset="1" stop-color="#5b2eff"/>
    </linearGradient>
    <radialGradient id="r" cx=".75" cy=".35" r=".45">
      <stop offset="0" stop-color="#20d9ff" stop-opacity=".9"/>
      <stop offset="1" stop-color="#20d9ff" stop-opacity="0"/>
    </radialGradient>
  </defs>
  <rect width="720" height="420" rx="28" fill="url(#g)"/>
  <rect width="720" height="420" rx="28" fill="url(#r)"/>
  <g fill="none" stroke="#fff" stroke-opacity=".16">
    <path d="M70 310C150 190 245 340 340 210S540 70 650 145"/>
    <path d="M80 90h560M80 150h560M80 210h560M80 270h560M160 55v310M290 55v310M420 55v310M550 55v310"/>
  </g>
  <circle cx="530" cy="145" r="80" fill="none" stroke="#b9a7ff" stroke-width="3" opacity=".65"/>
  <circle cx="530" cy="145" r="46" fill="none" stroke="#20d9ff" stroke-width="2" opacity=".55"/>
  <path d="M486 145h88M530 101v88" stroke="#fff" stroke-opacity=".55" stroke-width="2"/>
  <g fill="#fff">
    <text x="54" y="92" font-family="Inter,Arial" font-size="22" font-weight="700">Live in 23 Days</text>
    <text x="54" y="150" font-family="Inter,Arial" font-size="48" font-weight="800">Global</text>
    <text x="54" y="204" font-family="Inter,Arial" font-size="48" font-weight="800">Tech Summit</text>
    <text x="54" y="258" font-family="Inter,Arial" font-size="48" font-weight="800">2024</text>
  </g>
</svg>
